# MagicaVoxel @ ephtracy

# material
mtllib Chair.mtl
usemtl palette

# normals
vn -1 0 0
vn 1 0 0
vn 0 0 1
vn 0 0 -1
vn 0 -1 0
vn 0 1 0

# texcoords
vt 0.283203 0.5
vt 0.306641 0.5

# verts
v -8.5 0 8.5
v -8.5 0 5.5
v -8.5 0 -5.5
v -8.5 0 -8.5
v -8.5 8 5.5
v -8.5 8 -5.5
v -8.5 11 8.5
v -8.5 11 -5.5
v -8.5 23 -5.5
v -8.5 23 -8.5
v -8.5 24 -5.5
v -8.5 24 -8.5
v -8.5 25 -6.5
v -8.5 25 -7.5
v -8.5 26 -6.5
v -8.5 26 -7.5
v -7.5 24 -6.5
v -7.5 24 -7.5
v -7.5 25 -5.5
v -7.5 25 -6.5
v -7.5 25 -7.5
v -7.5 25 -8.5
v -7.5 26 -5.5
v -7.5 26 -6.5
v -7.5 26 -7.5
v -7.5 26 -8.5
v -7.5 27 -6.5
v -7.5 27 -7.5
v -4.5 18 -8.5
v -4.5 18 -9.5
v -4.5 22 -8.5
v -4.5 22 -9.5
v 3.5 18 -6.5
v 3.5 18 -7.5
v 3.5 22 -6.5
v 3.5 22 -7.5
v 5.5 0 8.5
v 5.5 0 5.5
v 5.5 0 -5.5
v 5.5 0 -8.5
v 5.5 8 8.5
v 5.5 8 5.5
v 5.5 8 -5.5
v 5.5 8 -8.5
v 5.5 11 -5.5
v 5.5 11 -8.5
v 5.5 18 -6.5
v 5.5 18 -8.5
v 5.5 22 -6.5
v 5.5 22 -8.5
v 5.5 23 -5.5
v 5.5 23 -8.5
v 5.5 24 -5.5
v 5.5 24 -8.5
v 5.5 25 -6.5
v 5.5 25 -7.5
v 5.5 26 -6.5
v 5.5 26 -7.5
v 6.5 24 -6.5
v 6.5 24 -7.5
v 6.5 25 -5.5
v 6.5 25 -6.5
v 6.5 25 -7.5
v 6.5 25 -8.5
v 6.5 26 -5.5
v 6.5 26 -6.5
v 6.5 26 -7.5
v 6.5 26 -8.5
v 6.5 27 -6.5
v 6.5 27 -7.5
v -6.5 24 -6.5
v -6.5 24 -7.5
v -6.5 25 -5.5
v -6.5 25 -6.5
v -6.5 25 -7.5
v -6.5 25 -8.5
v -6.5 26 -5.5
v -6.5 26 -6.5
v -6.5 26 -7.5
v -6.5 26 -8.5
v -6.5 27 -6.5
v -6.5 27 -7.5
v -5.5 0 8.5
v -5.5 0 5.5
v -5.5 0 -5.5
v -5.5 0 -8.5
v -5.5 8 8.5
v -5.5 8 5.5
v -5.5 8 -5.5
v -5.5 8 -8.5
v -5.5 11 -5.5
v -5.5 11 -8.5
v -5.5 18 -6.5
v -5.5 18 -8.5
v -5.5 22 -6.5
v -5.5 22 -8.5
v -5.5 23 -5.5
v -5.5 23 -8.5
v -5.5 24 -5.5
v -5.5 24 -8.5
v -5.5 25 -6.5
v -5.5 25 -7.5
v -5.5 26 -6.5
v -5.5 26 -7.5
v -3.5 18 -6.5
v -3.5 18 -7.5
v -3.5 22 -6.5
v -3.5 22 -7.5
v 4.5 18 -8.5
v 4.5 18 -9.5
v 4.5 22 -8.5
v 4.5 22 -9.5
v 7.5 24 -6.5
v 7.5 24 -7.5
v 7.5 25 -5.5
v 7.5 25 -6.5
v 7.5 25 -7.5
v 7.5 25 -8.5
v 7.5 26 -5.5
v 7.5 26 -6.5
v 7.5 26 -7.5
v 7.5 26 -8.5
v 7.5 27 -6.5
v 7.5 27 -7.5
v 8.5 0 8.5
v 8.5 0 5.5
v 8.5 0 -5.5
v 8.5 0 -8.5
v 8.5 8 5.5
v 8.5 8 -5.5
v 8.5 11 8.5
v 8.5 11 -5.5
v 8.5 23 -5.5
v 8.5 23 -8.5
v 8.5 24 -5.5
v 8.5 24 -8.5
v 8.5 25 -6.5
v 8.5 25 -7.5
v 8.5 26 -6.5
v 8.5 26 -7.5
v -8.5 0 8.5
v -8.5 11 8.5
v -5.5 0 8.5
v -5.5 8 8.5
v 5.5 0 8.5
v 5.5 8 8.5
v 8.5 0 8.5
v 8.5 11 8.5
v -8.5 0 -5.5
v -8.5 8 -5.5
v -8.5 11 -5.5
v -8.5 23 -5.5
v -8.5 24 -5.5
v -7.5 25 -5.5
v -7.5 26 -5.5
v -6.5 25 -5.5
v -6.5 26 -5.5
v -5.5 0 -5.5
v -5.5 8 -5.5
v -5.5 11 -5.5
v -5.5 23 -5.5
v -5.5 24 -5.5
v 5.5 0 -5.5
v 5.5 8 -5.5
v 5.5 11 -5.5
v 5.5 23 -5.5
v 5.5 24 -5.5
v 6.5 25 -5.5
v 6.5 26 -5.5
v 7.5 25 -5.5
v 7.5 26 -5.5
v 8.5 0 -5.5
v 8.5 8 -5.5
v 8.5 11 -5.5
v 8.5 23 -5.5
v 8.5 24 -5.5
v -8.5 25 -6.5
v -8.5 26 -6.5
v -7.5 24 -6.5
v -7.5 25 -6.5
v -7.5 26 -6.5
v -7.5 27 -6.5
v -6.5 24 -6.5
v -6.5 25 -6.5
v -6.5 26 -6.5
v -6.5 27 -6.5
v -5.5 18 -6.5
v -5.5 22 -6.5
v -5.5 25 -6.5
v -5.5 26 -6.5
v -3.5 18 -6.5
v -3.5 22 -6.5
v 3.5 18 -6.5
v 3.5 22 -6.5
v 5.5 18 -6.5
v 5.5 22 -6.5
v 5.5 25 -6.5
v 5.5 26 -6.5
v 6.5 24 -6.5
v 6.5 25 -6.5
v 6.5 26 -6.5
v 6.5 27 -6.5
v 7.5 24 -6.5
v 7.5 25 -6.5
v 7.5 26 -6.5
v 7.5 27 -6.5
v 8.5 25 -6.5
v 8.5 26 -6.5
v -3.5 18 -7.5
v -3.5 22 -7.5
v 3.5 18 -7.5
v 3.5 22 -7.5
v -8.5 0 5.5
v -8.5 8 5.5
v -5.5 0 5.5
v -5.5 8 5.5
v 5.5 0 5.5
v 5.5 8 5.5
v 8.5 0 5.5
v 8.5 8 5.5
v -8.5 25 -7.5
v -8.5 26 -7.5
v -7.5 24 -7.5
v -7.5 25 -7.5
v -7.5 26 -7.5
v -7.5 27 -7.5
v -6.5 24 -7.5
v -6.5 25 -7.5
v -6.5 26 -7.5
v -6.5 27 -7.5
v -5.5 25 -7.5
v -5.5 26 -7.5
v 5.5 25 -7.5
v 5.5 26 -7.5
v 6.5 24 -7.5
v 6.5 25 -7.5
v 6.5 26 -7.5
v 6.5 27 -7.5
v 7.5 24 -7.5
v 7.5 25 -7.5
v 7.5 26 -7.5
v 7.5 27 -7.5
v 8.5 25 -7.5
v 8.5 26 -7.5
v -8.5 0 -8.5
v -8.5 23 -8.5
v -8.5 24 -8.5
v -7.5 25 -8.5
v -7.5 26 -8.5
v -6.5 25 -8.5
v -6.5 26 -8.5
v -5.5 0 -8.5
v -5.5 8 -8.5
v -5.5 11 -8.5
v -5.5 18 -8.5
v -5.5 22 -8.5
v -5.5 23 -8.5
v -5.5 24 -8.5
v -4.5 18 -8.5
v -4.5 22 -8.5
v 4.5 18 -8.5
v 4.5 22 -8.5
v 5.5 0 -8.5
v 5.5 8 -8.5
v 5.5 11 -8.5
v 5.5 18 -8.5
v 5.5 22 -8.5
v 5.5 23 -8.5
v 5.5 24 -8.5
v 6.5 25 -8.5
v 6.5 26 -8.5
v 7.5 25 -8.5
v 7.5 26 -8.5
v 8.5 0 -8.5
v 8.5 23 -8.5
v 8.5 24 -8.5
v -4.5 18 -9.5
v -4.5 22 -9.5
v 4.5 18 -9.5
v 4.5 22 -9.5
v -8.5 0 8.5
v -5.5 0 8.5
v 5.5 0 8.5
v 8.5 0 8.5
v -8.5 0 5.5
v -5.5 0 5.5
v 5.5 0 5.5
v 8.5 0 5.5
v -8.5 0 -5.5
v -5.5 0 -5.5
v 5.5 0 -5.5
v 8.5 0 -5.5
v -8.5 0 -8.5
v -5.5 0 -8.5
v 5.5 0 -8.5
v 8.5 0 -8.5
v -5.5 8 8.5
v 5.5 8 8.5
v -8.5 8 5.5
v -5.5 8 5.5
v 5.5 8 5.5
v 8.5 8 5.5
v -8.5 8 -5.5
v -5.5 8 -5.5
v 5.5 8 -5.5
v 8.5 8 -5.5
v -5.5 8 -8.5
v 5.5 8 -8.5
v -5.5 18 -6.5
v -3.5 18 -6.5
v 3.5 18 -6.5
v 5.5 18 -6.5
v -3.5 18 -7.5
v 3.5 18 -7.5
v -5.5 18 -8.5
v -4.5 18 -8.5
v 4.5 18 -8.5
v 5.5 18 -8.5
v -4.5 18 -9.5
v 4.5 18 -9.5
v -7.5 25 -5.5
v -6.5 25 -5.5
v 6.5 25 -5.5
v 7.5 25 -5.5
v -8.5 25 -6.5
v -7.5 25 -6.5
v -6.5 25 -6.5
v -5.5 25 -6.5
v 5.5 25 -6.5
v 6.5 25 -6.5
v 7.5 25 -6.5
v 8.5 25 -6.5
v -8.5 25 -7.5
v -7.5 25 -7.5
v -6.5 25 -7.5
v -5.5 25 -7.5
v 5.5 25 -7.5
v 6.5 25 -7.5
v 7.5 25 -7.5
v 8.5 25 -7.5
v -7.5 25 -8.5
v -6.5 25 -8.5
v 6.5 25 -8.5
v 7.5 25 -8.5
v -8.5 11 8.5
v 8.5 11 8.5
v -8.5 11 -5.5
v -5.5 11 -5.5
v 5.5 11 -5.5
v 8.5 11 -5.5
v -5.5 11 -8.5
v 5.5 11 -8.5
v -5.5 22 -6.5
v -3.5 22 -6.5
v 3.5 22 -6.5
v 5.5 22 -6.5
v -3.5 22 -7.5
v 3.5 22 -7.5
v -5.5 22 -8.5
v -4.5 22 -8.5
v 4.5 22 -8.5
v 5.5 22 -8.5
v -4.5 22 -9.5
v 4.5 22 -9.5
v -8.5 24 -5.5
v -5.5 24 -5.5
v 5.5 24 -5.5
v 8.5 24 -5.5
v -7.5 24 -6.5
v -6.5 24 -6.5
v 6.5 24 -6.5
v 7.5 24 -6.5
v -7.5 24 -7.5
v -6.5 24 -7.5
v 6.5 24 -7.5
v 7.5 24 -7.5
v -8.5 24 -8.5
v -5.5 24 -8.5
v 5.5 24 -8.5
v 8.5 24 -8.5
v -7.5 26 -5.5
v -6.5 26 -5.5
v 6.5 26 -5.5
v 7.5 26 -5.5
v -8.5 26 -6.5
v -7.5 26 -6.5
v -6.5 26 -6.5
v -5.5 26 -6.5
v 5.5 26 -6.5
v 6.5 26 -6.5
v 7.5 26 -6.5
v 8.5 26 -6.5
v -8.5 26 -7.5
v -7.5 26 -7.5
v -6.5 26 -7.5
v -5.5 26 -7.5
v 5.5 26 -7.5
v 6.5 26 -7.5
v 7.5 26 -7.5
v 8.5 26 -7.5
v -7.5 26 -8.5
v -6.5 26 -8.5
v 6.5 26 -8.5
v 7.5 26 -8.5
v -7.5 27 -6.5
v -6.5 27 -6.5
v 6.5 27 -6.5
v 7.5 27 -6.5
v -7.5 27 -7.5
v -6.5 27 -7.5
v 6.5 27 -7.5
v 7.5 27 -7.5

# faces
f 5/2/1 2/2/1 1/2/1
f 6/2/1 4/2/1 3/2/1
f 7/2/1 5/2/1 1/2/1
f 7/2/1 6/2/1 5/2/1
f 8/2/1 4/2/1 6/2/1
f 8/2/1 6/2/1 7/2/1
f 9/2/1 4/2/1 8/2/1
f 10/2/1 4/2/1 9/2/1
f 11/1/1 10/1/1 9/1/1
f 12/1/1 10/1/1 11/1/1
f 15/1/1 14/1/1 13/1/1
f 16/1/1 14/1/1 15/1/1
f 20/1/1 18/1/1 17/1/1
f 21/1/1 18/1/1 20/1/1
f 23/1/1 20/1/1 19/1/1
f 24/1/1 20/1/1 23/1/1
f 25/1/1 22/1/1 21/1/1
f 26/1/1 22/1/1 25/1/1
f 27/1/1 25/1/1 24/1/1
f 28/1/1 25/1/1 27/1/1
f 31/2/1 30/2/1 29/2/1
f 32/2/1 30/2/1 31/2/1
f 35/2/1 34/2/1 33/2/1
f 36/2/1 34/2/1 35/2/1
f 41/2/1 38/2/1 37/2/1
f 42/2/1 38/2/1 41/2/1
f 43/2/1 40/2/1 39/2/1
f 44/2/1 40/2/1 43/2/1
f 47/2/1 46/2/1 45/2/1
f 48/2/1 46/2/1 47/2/1
f 49/2/1 47/2/1 45/2/1
f 51/2/1 49/2/1 45/2/1
f 51/2/1 50/2/1 49/2/1
f 52/2/1 50/2/1 51/2/1
f 53/1/1 52/1/1 51/1/1
f 54/1/1 52/1/1 53/1/1
f 57/1/1 56/1/1 55/1/1
f 58/1/1 56/1/1 57/1/1
f 62/1/1 60/1/1 59/1/1
f 63/1/1 60/1/1 62/1/1
f 65/1/1 62/1/1 61/1/1
f 66/1/1 62/1/1 65/1/1
f 67/1/1 64/1/1 63/1/1
f 68/1/1 64/1/1 67/1/1
f 69/1/1 67/1/1 66/1/1
f 70/1/1 67/1/1 69/1/1
f 71/1/2 72/1/2 74/1/2
f 74/1/2 72/1/2 75/1/2
f 73/1/2 74/1/2 77/1/2
f 77/1/2 74/1/2 78/1/2
f 75/1/2 76/1/2 79/1/2
f 79/1/2 76/1/2 80/1/2
f 78/1/2 79/1/2 81/1/2
f 81/1/2 79/1/2 82/1/2
f 83/2/2 84/2/2 87/2/2
f 87/2/2 84/2/2 88/2/2
f 85/2/2 86/2/2 89/2/2
f 89/2/2 86/2/2 90/2/2
f 91/2/2 92/2/2 93/2/2
f 93/2/2 92/2/2 94/2/2
f 91/2/2 93/2/2 95/2/2
f 91/2/2 95/2/2 97/2/2
f 95/2/2 96/2/2 97/2/2
f 97/2/2 96/2/2 98/2/2
f 97/1/2 98/1/2 99/1/2
f 99/1/2 98/1/2 100/1/2
f 101/1/2 102/1/2 103/1/2
f 103/1/2 102/1/2 104/1/2
f 105/2/2 106/2/2 107/2/2
f 107/2/2 106/2/2 108/2/2
f 109/2/2 110/2/2 111/2/2
f 111/2/2 110/2/2 112/2/2
f 113/1/2 114/1/2 116/1/2
f 116/1/2 114/1/2 117/1/2
f 115/1/2 116/1/2 119/1/2
f 119/1/2 116/1/2 120/1/2
f 117/1/2 118/1/2 121/1/2
f 121/1/2 118/1/2 122/1/2
f 120/1/2 121/1/2 123/1/2
f 123/1/2 121/1/2 124/1/2
f 125/2/2 126/2/2 129/2/2
f 127/2/2 128/2/2 130/2/2
f 125/2/2 129/2/2 131/2/2
f 129/2/2 130/2/2 131/2/2
f 130/2/2 128/2/2 132/2/2
f 131/2/2 130/2/2 132/2/2
f 132/2/2 128/2/2 133/2/2
f 133/2/2 128/2/2 134/2/2
f 133/1/2 134/1/2 135/1/2
f 135/1/2 134/1/2 136/1/2
f 137/1/2 138/1/2 139/1/2
f 139/1/2 138/1/2 140/1/2
f 143/2/3 142/2/3 141/2/3
f 144/2/3 142/2/3 143/2/3
f 146/2/3 142/2/3 144/2/3
f 147/2/3 146/2/3 145/2/3
f 148/2/3 142/2/3 146/2/3
f 148/2/3 146/2/3 147/2/3
f 156/1/3 155/1/3 154/1/3
f 157/1/3 155/1/3 156/1/3
f 158/2/3 150/2/3 149/2/3
f 159/2/3 150/2/3 158/2/3
f 160/2/3 152/2/3 151/2/3
f 161/1/3 153/1/3 152/1/3
f 161/2/3 152/2/3 160/2/3
f 162/1/3 153/1/3 161/1/3
f 170/1/3 169/1/3 168/1/3
f 171/1/3 169/1/3 170/1/3
f 172/2/3 164/2/3 163/2/3
f 173/2/3 164/2/3 172/2/3
f 174/2/3 166/2/3 165/2/3
f 175/1/3 167/1/3 166/1/3
f 175/2/3 166/2/3 174/2/3
f 176/1/3 167/1/3 175/1/3
f 180/1/3 178/1/3 177/1/3
f 181/1/3 178/1/3 180/1/3
f 183/1/3 180/1/3 179/1/3
f 184/1/3 180/1/3 183/1/3
f 185/1/3 182/1/3 181/1/3
f 186/1/3 182/1/3 185/1/3
f 189/1/3 185/1/3 184/1/3
f 190/1/3 185/1/3 189/1/3
f 191/2/3 188/2/3 187/2/3
f 192/2/3 188/2/3 191/2/3
f 195/2/3 194/2/3 193/2/3
f 196/2/3 194/2/3 195/2/3
f 200/1/3 198/1/3 197/1/3
f 201/1/3 198/1/3 200/1/3
f 203/1/3 200/1/3 199/1/3
f 204/1/3 200/1/3 203/1/3
f 205/1/3 202/1/3 201/1/3
f 206/1/3 202/1/3 205/1/3
f 207/1/3 205/1/3 204/1/3
f 208/1/3 205/1/3 207/1/3
f 211/2/3 210/2/3 209/2/3
f 212/2/3 210/2/3 211/2/3
f 213/2/4 214/2/4 215/2/4
f 215/2/4 214/2/4 216/2/4
f 217/2/4 218/2/4 219/2/4
f 219/2/4 218/2/4 220/2/4
f 221/1/4 222/1/4 224/1/4
f 224/1/4 222/1/4 225/1/4
f 223/1/4 224/1/4 227/1/4
f 227/1/4 224/1/4 228/1/4
f 225/1/4 226/1/4 229/1/4
f 229/1/4 226/1/4 230/1/4
f 228/1/4 229/1/4 231/1/4
f 231/1/4 229/1/4 232/1/4
f 233/1/4 234/1/4 236/1/4
f 236/1/4 234/1/4 237/1/4
f 235/1/4 236/1/4 239/1/4
f 239/1/4 236/1/4 240/1/4
f 237/1/4 238/1/4 241/1/4
f 241/1/4 238/1/4 242/1/4
f 240/1/4 241/1/4 243/1/4
f 243/1/4 241/1/4 244/1/4
f 248/1/4 249/1/4 250/1/4
f 250/1/4 249/1/4 251/1/4
f 245/2/4 246/2/4 252/2/4
f 252/2/4 246/2/4 253/2/4
f 253/2/4 246/2/4 254/2/4
f 254/2/4 246/2/4 255/2/4
f 255/2/4 246/2/4 256/2/4
f 246/1/4 247/1/4 257/1/4
f 256/2/4 246/2/4 257/2/4
f 257/1/4 247/1/4 258/1/4
f 255/2/4 256/2/4 259/2/4
f 259/2/4 256/2/4 260/2/4
f 253/2/4 254/2/4 264/2/4
f 264/2/4 254/2/4 265/2/4
f 261/2/4 262/2/4 266/2/4
f 266/2/4 262/2/4 267/2/4
f 270/1/4 271/1/4 272/1/4
f 272/1/4 271/1/4 273/1/4
f 264/2/4 265/2/4 274/2/4
f 266/2/4 267/2/4 274/2/4
f 263/2/4 264/2/4 274/2/4
f 267/2/4 268/2/4 274/2/4
f 265/2/4 266/2/4 274/2/4
f 268/1/4 269/1/4 275/1/4
f 274/2/4 268/2/4 275/2/4
f 275/1/4 269/1/4 276/1/4
f 277/2/4 278/2/4 279/2/4
f 279/2/4 278/2/4 280/2/4
f 285/2/5 282/2/5 281/2/5
f 286/2/5 282/2/5 285/2/5
f 287/2/5 284/2/5 283/2/5
f 288/2/5 284/2/5 287/2/5
f 293/2/5 290/2/5 289/2/5
f 294/2/5 290/2/5 293/2/5
f 295/2/5 292/2/5 291/2/5
f 296/2/5 292/2/5 295/2/5
f 300/2/5 298/2/5 297/2/5
f 301/2/5 298/2/5 300/2/5
f 303/2/5 300/2/5 299/2/5
f 303/2/5 302/2/5 301/2/5
f 303/2/5 301/2/5 300/2/5
f 304/2/5 302/2/5 303/2/5
f 305/2/5 302/2/5 304/2/5
f 306/2/5 302/2/5 305/2/5
f 307/2/5 305/2/5 304/2/5
f 308/2/5 305/2/5 307/2/5
f 313/2/5 310/2/5 309/2/5
f 314/2/5 312/2/5 311/2/5
f 315/2/5 313/2/5 309/2/5
f 315/2/5 314/2/5 313/2/5
f 316/2/5 314/2/5 315/2/5
f 317/2/5 312/2/5 314/2/5
f 317/2/5 314/2/5 316/2/5
f 318/2/5 312/2/5 317/2/5
f 319/2/5 317/2/5 316/2/5
f 320/2/5 317/2/5 319/2/5
f 326/1/5 322/1/5 321/1/5
f 327/1/5 322/1/5 326/1/5
f 330/1/5 324/1/5 323/1/5
f 331/1/5 324/1/5 330/1/5
f 333/1/5 326/1/5 325/1/5
f 334/1/5 326/1/5 333/1/5
f 335/1/5 328/1/5 327/1/5
f 336/1/5 328/1/5 335/1/5
f 337/1/5 330/1/5 329/1/5
f 338/1/5 330/1/5 337/1/5
f 339/1/5 332/1/5 331/1/5
f 340/1/5 332/1/5 339/1/5
f 341/1/5 335/1/5 334/1/5
f 342/1/5 335/1/5 341/1/5
f 343/1/5 339/1/5 338/1/5
f 344/1/5 339/1/5 343/1/5
f 345/2/6 346/2/6 347/2/6
f 347/2/6 346/2/6 348/2/6
f 348/2/6 346/2/6 349/2/6
f 349/2/6 346/2/6 350/2/6
f 348/2/6 349/2/6 351/2/6
f 351/2/6 349/2/6 352/2/6
f 353/2/6 354/2/6 357/2/6
f 355/2/6 356/2/6 358/2/6
f 353/2/6 357/2/6 359/2/6
f 357/2/6 358/2/6 359/2/6
f 359/2/6 358/2/6 360/2/6
f 358/2/6 356/2/6 361/2/6
f 360/2/6 358/2/6 361/2/6
f 361/2/6 356/2/6 362/2/6
f 360/2/6 361/2/6 363/2/6
f 363/2/6 361/2/6 364/2/6
f 365/1/6 366/1/6 369/1/6
f 369/1/6 366/1/6 370/1/6
f 367/1/6 368/1/6 371/1/6
f 371/1/6 368/1/6 372/1/6
f 365/1/6 369/1/6 373/1/6
f 370/1/6 366/1/6 374/1/6
f 367/1/6 371/1/6 375/1/6
f 372/1/6 368/1/6 376/1/6
f 365/1/6 373/1/6 377/1/6
f 373/1/6 374/1/6 377/1/6
f 374/1/6 366/1/6 378/1/6
f 377/1/6 374/1/6 378/1/6
f 375/1/6 376/1/6 379/1/6
f 367/1/6 375/1/6 379/1/6
f 376/1/6 368/1/6 380/1/6
f 379/1/6 376/1/6 380/1/6
f 381/1/6 382/1/6 386/1/6
f 386/1/6 382/1/6 387/1/6
f 383/1/6 384/1/6 390/1/6
f 390/1/6 384/1/6 391/1/6
f 385/1/6 386/1/6 393/1/6
f 393/1/6 386/1/6 394/1/6
f 387/1/6 388/1/6 395/1/6
f 395/1/6 388/1/6 396/1/6
f 389/1/6 390/1/6 397/1/6
f 397/1/6 390/1/6 398/1/6
f 391/1/6 392/1/6 399/1/6
f 399/1/6 392/1/6 400/1/6
f 394/1/6 395/1/6 401/1/6
f 401/1/6 395/1/6 402/1/6
f 398/1/6 399/1/6 403/1/6
f 403/1/6 399/1/6 404/1/6
f 405/1/6 406/1/6 409/1/6
f 409/1/6 406/1/6 410/1/6
f 407/1/6 408/1/6 411/1/6
f 411/1/6 408/1/6 412/1/6
