# MagicaVoxel @ ephtracy

# material
mtllib ObsidianLittleCorner.mtl
usemtl palette

# normals
vn -1 0 0
vn 1 0 0
vn 0 0 1
vn 0 0 -1
vn 0 -1 0
vn 0 1 0

# texcoords
vt 0.259766 0.5
vt 0.263672 0.5
vt 0.267578 0.5
vt 0.294922 0.5
vt 0.318359 0.5

# verts
v -22.5 63 22.5
v -22.5 63 -22.5
v -22.5 65 22.5
v -22.5 65 -22.5
v 8.5 64 -15.5
v 8.5 64 -17.5
v 8.5 64 -20.5
v 8.5 64 -21.5
v 8.5 64 -22.5
v 8.5 65 -15.5
v 8.5 65 -17.5
v 8.5 65 -20.5
v 8.5 65 -21.5
v 8.5 65 -22.5
v 9.5 64 -13.5
v 9.5 64 -15.5
v 9.5 65 -13.5
v 9.5 65 -15.5
v 10.5 64 -12.5
v 10.5 64 -13.5
v 10.5 65 -12.5
v 10.5 65 -13.5
v 11.5 64 -10.5
v 11.5 64 -11.5
v 11.5 64 -20.5
v 11.5 64 -22.5
v 11.5 65 -10.5
v 11.5 65 -11.5
v 11.5 65 -20.5
v 11.5 65 -22.5
v 12.5 64 -9.5
v 12.5 64 -10.5
v 12.5 64 -19.5
v 12.5 64 -20.5
v 12.5 65 -9.5
v 12.5 65 -10.5
v 12.5 65 -19.5
v 12.5 65 -20.5
v 13.5 64 -8.5
v 13.5 64 -9.5
v 13.5 64 -11.5
v 13.5 64 -12.5
v 13.5 64 -17.5
v 13.5 64 -19.5
v 13.5 65 -8.5
v 13.5 65 -9.5
v 13.5 65 -11.5
v 13.5 65 -12.5
v 13.5 65 -17.5
v 13.5 65 -19.5
v 14.5 64 -13.5
v 14.5 64 -16.5
v 14.5 65 -13.5
v 14.5 65 -16.5
v 16.5 64 -8.5
v 16.5 64 -9.5
v 16.5 64 -12.5
v 16.5 64 -13.5
v 16.5 64 -16.5
v 16.5 64 -18.5
v 16.5 65 -8.5
v 16.5 65 -9.5
v 16.5 65 -12.5
v 16.5 65 -13.5
v 16.5 65 -16.5
v 16.5 65 -18.5
v 17.5 64 -9.5
v 17.5 64 -10.5
v 17.5 64 -20.5
v 17.5 64 -21.5
v 17.5 64 -22.5
v 17.5 65 -9.5
v 17.5 65 -10.5
v 17.5 65 -20.5
v 17.5 65 -21.5
v 17.5 65 -22.5
v 18.5 64 -8.5
v 18.5 64 -9.5
v 18.5 64 -11.5
v 18.5 64 -12.5
v 18.5 64 -18.5
v 18.5 64 -20.5
v 18.5 65 -8.5
v 18.5 65 -9.5
v 18.5 65 -11.5
v 18.5 65 -12.5
v 18.5 65 -18.5
v 18.5 65 -20.5
v 19.5 64 -17.5
v 19.5 64 -18.5
v 19.5 65 -17.5
v 19.5 65 -18.5
v 7.5 64 -14.5
v 7.5 64 -22.5
v 7.5 65 -14.5
v 7.5 65 -22.5
v 8.5 64 -12.5
v 8.5 64 -14.5
v 8.5 65 -12.5
v 8.5 65 -14.5
v 9.5 64 -11.5
v 9.5 64 -12.5
v 9.5 65 -11.5
v 9.5 65 -12.5
v 10.5 64 -9.5
v 10.5 64 -11.5
v 10.5 64 -19.5
v 10.5 64 -20.5
v 10.5 64 -21.5
v 10.5 64 -22.5
v 10.5 65 -9.5
v 10.5 65 -11.5
v 10.5 65 -19.5
v 10.5 65 -20.5
v 10.5 65 -21.5
v 10.5 65 -22.5
v 11.5 64 -8.5
v 11.5 64 -9.5
v 11.5 64 -18.5
v 11.5 64 -19.5
v 11.5 65 -8.5
v 11.5 65 -9.5
v 11.5 65 -18.5
v 11.5 65 -19.5
v 12.5 64 -7.5
v 12.5 64 -8.5
v 12.5 64 -15.5
v 12.5 64 -18.5
v 12.5 65 -7.5
v 12.5 65 -8.5
v 12.5 65 -15.5
v 12.5 65 -18.5
v 13.5 64 -12.5
v 13.5 64 -15.5
v 13.5 65 -12.5
v 13.5 65 -15.5
v 15.5 64 -8.5
v 15.5 64 -9.5
v 15.5 64 -11.5
v 15.5 64 -12.5
v 15.5 64 -17.5
v 15.5 64 -18.5
v 15.5 65 -8.5
v 15.5 65 -9.5
v 15.5 65 -11.5
v 15.5 65 -12.5
v 15.5 65 -17.5
v 15.5 65 -18.5
v 16.5 64 -9.5
v 16.5 64 -11.5
v 16.5 64 -18.5
v 16.5 64 -22.5
v 16.5 65 -9.5
v 16.5 65 -11.5
v 16.5 65 -18.5
v 16.5 65 -22.5
v 17.5 64 -8.5
v 17.5 64 -9.5
v 17.5 64 -17.5
v 17.5 64 -18.5
v 17.5 65 -8.5
v 17.5 65 -9.5
v 17.5 65 -17.5
v 17.5 65 -18.5
v 18.5 64 -16.5
v 18.5 64 -17.5
v 18.5 65 -16.5
v 18.5 65 -17.5
v 21.5 64 -11.5
v 21.5 64 -12.5
v 21.5 65 -11.5
v 21.5 65 -12.5
v 22.5 63 22.5
v 22.5 63 -22.5
v 22.5 64 -7.5
v 22.5 64 -8.5
v 22.5 64 -9.5
v 22.5 64 -10.5
v 22.5 64 -12.5
v 22.5 64 -16.5
v 22.5 64 -17.5
v 22.5 64 -18.5
v 22.5 64 -20.5
v 22.5 64 -22.5
v 22.5 65 22.5
v 22.5 65 -7.5
v 22.5 65 -8.5
v 22.5 65 -9.5
v 22.5 65 -10.5
v 22.5 65 -12.5
v 22.5 65 -16.5
v 22.5 65 -17.5
v 22.5 65 -18.5
v 22.5 65 -20.5
v 22.5 65 -22.5
v -22.5 63 22.5
v -22.5 65 22.5
v 22.5 63 22.5
v 22.5 65 22.5
v 13.5 64 -8.5
v 13.5 65 -8.5
v 15.5 64 -8.5
v 15.5 65 -8.5
v 16.5 64 -8.5
v 16.5 65 -8.5
v 17.5 64 -8.5
v 17.5 65 -8.5
v 18.5 64 -8.5
v 18.5 65 -8.5
v 21.5 64 -8.5
v 21.5 65 -8.5
v 22.5 64 -8.5
v 22.5 65 -8.5
v 12.5 64 -9.5
v 12.5 65 -9.5
v 13.5 64 -9.5
v 13.5 65 -9.5
v 15.5 64 -9.5
v 15.5 65 -9.5
v 16.5 64 -9.5
v 16.5 65 -9.5
v 17.5 64 -9.5
v 17.5 65 -9.5
v 18.5 64 -9.5
v 18.5 65 -9.5
v 11.5 64 -10.5
v 11.5 65 -10.5
v 12.5 64 -10.5
v 12.5 65 -10.5
v 18.5 64 -11.5
v 18.5 65 -11.5
v 21.5 64 -11.5
v 21.5 65 -11.5
v 10.5 64 -12.5
v 10.5 65 -12.5
v 13.5 64 -12.5
v 13.5 65 -12.5
v 16.5 64 -12.5
v 16.5 65 -12.5
v 18.5 64 -12.5
v 18.5 65 -12.5
v 21.5 64 -12.5
v 21.5 65 -12.5
v 22.5 64 -12.5
v 22.5 65 -12.5
v 9.5 64 -13.5
v 9.5 65 -13.5
v 10.5 64 -13.5
v 10.5 65 -13.5
v 14.5 64 -13.5
v 14.5 65 -13.5
v 16.5 64 -13.5
v 16.5 65 -13.5
v 8.5 64 -15.5
v 8.5 65 -15.5
v 9.5 64 -15.5
v 9.5 65 -15.5
v 13.5 64 -17.5
v 13.5 65 -17.5
v 15.5 64 -17.5
v 15.5 65 -17.5
v 19.5 64 -17.5
v 19.5 65 -17.5
v 22.5 64 -17.5
v 22.5 65 -17.5
v 15.5 64 -18.5
v 15.5 65 -18.5
v 16.5 64 -18.5
v 16.5 65 -18.5
v 18.5 64 -18.5
v 18.5 65 -18.5
v 19.5 64 -18.5
v 19.5 65 -18.5
v 12.5 64 -19.5
v 12.5 65 -19.5
v 13.5 64 -19.5
v 13.5 65 -19.5
v 11.5 64 -20.5
v 11.5 65 -20.5
v 12.5 64 -20.5
v 12.5 65 -20.5
v 17.5 64 -20.5
v 17.5 65 -20.5
v 18.5 64 -20.5
v 18.5 65 -20.5
v 8.5 64 -21.5
v 8.5 65 -21.5
v 10.5 64 -21.5
v 10.5 65 -21.5
v 12.5 64 -7.5
v 12.5 65 -7.5
v 22.5 64 -7.5
v 22.5 65 -7.5
v 11.5 64 -8.5
v 11.5 65 -8.5
v 12.5 64 -8.5
v 12.5 65 -8.5
v 10.5 64 -9.5
v 10.5 65 -9.5
v 11.5 64 -9.5
v 11.5 65 -9.5
v 16.5 64 -9.5
v 16.5 65 -9.5
v 17.5 64 -9.5
v 17.5 65 -9.5
v 17.5 64 -10.5
v 17.5 65 -10.5
v 21.5 64 -10.5
v 21.5 65 -10.5
v 22.5 64 -10.5
v 22.5 65 -10.5
v 9.5 64 -11.5
v 9.5 65 -11.5
v 10.5 64 -11.5
v 10.5 65 -11.5
v 11.5 64 -11.5
v 11.5 65 -11.5
v 13.5 64 -11.5
v 13.5 65 -11.5
v 15.5 64 -11.5
v 15.5 65 -11.5
v 16.5 64 -11.5
v 16.5 65 -11.5
v 8.5 64 -12.5
v 8.5 65 -12.5
v 9.5 64 -12.5
v 9.5 65 -12.5
v 13.5 64 -12.5
v 13.5 65 -12.5
v 15.5 64 -12.5
v 15.5 65 -12.5
v 7.5 64 -14.5
v 7.5 65 -14.5
v 8.5 64 -14.5
v 8.5 65 -14.5
v 12.5 64 -15.5
v 12.5 65 -15.5
v 13.5 64 -15.5
v 13.5 65 -15.5
v 14.5 64 -16.5
v 14.5 65 -16.5
v 16.5 64 -16.5
v 16.5 65 -16.5
v 18.5 64 -16.5
v 18.5 65 -16.5
v 20.5 64 -16.5
v 20.5 65 -16.5
v 22.5 64 -16.5
v 22.5 65 -16.5
v 17.5 64 -17.5
v 17.5 65 -17.5
v 18.5 64 -17.5
v 18.5 65 -17.5
v 11.5 64 -18.5
v 11.5 65 -18.5
v 12.5 64 -18.5
v 12.5 65 -18.5
v 16.5 64 -18.5
v 16.5 65 -18.5
v 17.5 64 -18.5
v 17.5 65 -18.5
v 10.5 64 -19.5
v 10.5 65 -19.5
v 11.5 64 -19.5
v 11.5 65 -19.5
v 8.5 64 -20.5
v 8.5 65 -20.5
v 10.5 64 -20.5
v 10.5 65 -20.5
v -22.5 63 -22.5
v -22.5 65 -22.5
v 7.5 64 -22.5
v 7.5 65 -22.5
v 8.5 64 -22.5
v 8.5 65 -22.5
v 10.5 64 -22.5
v 10.5 65 -22.5
v 11.5 64 -22.5
v 11.5 65 -22.5
v 12.5 64 -22.5
v 12.5 65 -22.5
v 14.5 64 -22.5
v 14.5 65 -22.5
v 15.5 64 -22.5
v 15.5 65 -22.5
v 16.5 64 -22.5
v 16.5 65 -22.5
v 17.5 64 -22.5
v 17.5 65 -22.5
v 18.5 64 -22.5
v 18.5 65 -22.5
v 19.5 64 -22.5
v 19.5 65 -22.5
v 21.5 64 -22.5
v 21.5 65 -22.5
v 22.5 63 -22.5
v 22.5 64 -22.5
v 22.5 65 -22.5
v -22.5 63 22.5
v 22.5 63 22.5
v -22.5 63 -22.5
v 22.5 63 -22.5
v 12.5 64 -7.5
v 22.5 64 -7.5
v 11.5 64 -8.5
v 12.5 64 -8.5
v 13.5 64 -8.5
v 15.5 64 -8.5
v 16.5 64 -8.5
v 17.5 64 -8.5
v 18.5 64 -8.5
v 21.5 64 -8.5
v 22.5 64 -8.5
v 10.5 64 -9.5
v 11.5 64 -9.5
v 12.5 64 -9.5
v 13.5 64 -9.5
v 15.5 64 -9.5
v 16.5 64 -9.5
v 17.5 64 -9.5
v 18.5 64 -9.5
v 11.5 64 -10.5
v 12.5 64 -10.5
v 17.5 64 -10.5
v 21.5 64 -10.5
v 22.5 64 -10.5
v 9.5 64 -11.5
v 10.5 64 -11.5
v 11.5 64 -11.5
v 13.5 64 -11.5
v 15.5 64 -11.5
v 16.5 64 -11.5
v 18.5 64 -11.5
v 21.5 64 -11.5
v 8.5 64 -12.5
v 9.5 64 -12.5
v 10.5 64 -12.5
v 13.5 64 -12.5
v 15.5 64 -12.5
v 16.5 64 -12.5
v 18.5 64 -12.5
v 21.5 64 -12.5
v 22.5 64 -12.5
v 9.5 64 -13.5
v 10.5 64 -13.5
v 14.5 64 -13.5
v 16.5 64 -13.5
v 7.5 64 -14.5
v 8.5 64 -14.5
v 8.5 64 -15.5
v 9.5 64 -15.5
v 12.5 64 -15.5
v 13.5 64 -15.5
v 14.5 64 -16.5
v 16.5 64 -16.5
v 18.5 64 -16.5
v 20.5 64 -16.5
v 22.5 64 -16.5
v 8.5 64 -17.5
v 13.5 64 -17.5
v 15.5 64 -17.5
v 17.5 64 -17.5
v 18.5 64 -17.5
v 19.5 64 -17.5
v 22.5 64 -17.5
v 11.5 64 -18.5
v 12.5 64 -18.5
v 15.5 64 -18.5
v 16.5 64 -18.5
v 17.5 64 -18.5
v 18.5 64 -18.5
v 19.5 64 -18.5
v 10.5 64 -19.5
v 11.5 64 -19.5
v 12.5 64 -19.5
v 13.5 64 -19.5
v 8.5 64 -20.5
v 10.5 64 -20.5
v 11.5 64 -20.5
v 12.5 64 -20.5
v 17.5 64 -20.5
v 18.5 64 -20.5
v 8.5 64 -21.5
v 10.5 64 -21.5
v 17.5 64 -21.5
v 7.5 64 -22.5
v 8.5 64 -22.5
v 10.5 64 -22.5
v 11.5 64 -22.5
v 16.5 64 -22.5
v 17.5 64 -22.5
v -22.5 65 22.5
v 22.5 65 22.5
v 12.5 65 -7.5
v 22.5 65 -7.5
v 11.5 65 -8.5
v 12.5 65 -8.5
v 13.5 65 -8.5
v 15.5 65 -8.5
v 16.5 65 -8.5
v 17.5 65 -8.5
v 18.5 65 -8.5
v 21.5 65 -8.5
v 22.5 65 -8.5
v 10.5 65 -9.5
v 11.5 65 -9.5
v 12.5 65 -9.5
v 13.5 65 -9.5
v 15.5 65 -9.5
v 16.5 65 -9.5
v 17.5 65 -9.5
v 18.5 65 -9.5
v 21.5 65 -9.5
v 22.5 65 -9.5
v 11.5 65 -10.5
v 12.5 65 -10.5
v 13.5 65 -10.5
v 14.5 65 -10.5
v 17.5 65 -10.5
v 21.5 65 -10.5
v 22.5 65 -10.5
v 9.5 65 -11.5
v 10.5 65 -11.5
v 11.5 65 -11.5
v 13.5 65 -11.5
v 14.5 65 -11.5
v 15.5 65 -11.5
v 16.5 65 -11.5
v 18.5 65 -11.5
v 21.5 65 -11.5
v 8.5 65 -12.5
v 9.5 65 -12.5
v 10.5 65 -12.5
v 13.5 65 -12.5
v 15.5 65 -12.5
v 16.5 65 -12.5
v 18.5 65 -12.5
v 19.5 65 -12.5
v 21.5 65 -12.5
v 22.5 65 -12.5
v 9.5 65 -13.5
v 10.5 65 -13.5
v 12.5 65 -13.5
v 14.5 65 -13.5
v 16.5 65 -13.5
v 17.5 65 -13.5
v 19.5 65 -13.5
v 20.5 65 -13.5
v 21.5 65 -13.5
v 7.5 65 -14.5
v 8.5 65 -14.5
v 10.5 65 -14.5
v 11.5 65 -14.5
v 12.5 65 -14.5
v 16.5 65 -14.5
v 17.5 65 -14.5
v 20.5 65 -14.5
v 21.5 65 -14.5
v 8.5 65 -15.5
v 9.5 65 -15.5
v 10.5 65 -15.5
v 11.5 65 -15.5
v 12.5 65 -15.5
v 13.5 65 -15.5
v 16.5 65 -15.5
v 17.5 65 -15.5
v 20.5 65 -15.5
v 9.5 65 -16.5
v 10.5 65 -16.5
v 14.5 65 -16.5
v 16.5 65 -16.5
v 18.5 65 -16.5
v 20.5 65 -16.5
v 22.5 65 -16.5
v 8.5 65 -17.5
v 9.5 65 -17.5
v 10.5 65 -17.5
v 11.5 65 -17.5
v 13.5 65 -17.5
v 15.5 65 -17.5
v 17.5 65 -17.5
v 18.5 65 -17.5
v 19.5 65 -17.5
v 22.5 65 -17.5
v 11.5 65 -18.5
v 12.5 65 -18.5
v 15.5 65 -18.5
v 16.5 65 -18.5
v 17.5 65 -18.5
v 18.5 65 -18.5
v 19.5 65 -18.5
v 21.5 65 -18.5
v 22.5 65 -18.5
v 9.5 65 -19.5
v 10.5 65 -19.5
v 11.5 65 -19.5
v 12.5 65 -19.5
v 13.5 65 -19.5
v 14.5 65 -19.5
v 15.5 65 -19.5
v 20.5 65 -19.5
v 21.5 65 -19.5
v 8.5 65 -20.5
v 10.5 65 -20.5
v 11.5 65 -20.5
v 12.5 65 -20.5
v 17.5 65 -20.5
v 18.5 65 -20.5
v 19.5 65 -20.5
v 20.5 65 -20.5
v 21.5 65 -20.5
v 22.5 65 -20.5
v 8.5 65 -21.5
v 10.5 65 -21.5
v 12.5 65 -21.5
v 14.5 65 -21.5
v 15.5 65 -21.5
v 17.5 65 -21.5
v 18.5 65 -21.5
v 19.5 65 -21.5
v -22.5 65 -22.5
v 7.5 65 -22.5
v 8.5 65 -22.5
v 10.5 65 -22.5
v 11.5 65 -22.5
v 12.5 65 -22.5
v 14.5 65 -22.5
v 15.5 65 -22.5
v 16.5 65 -22.5
v 17.5 65 -22.5
v 18.5 65 -22.5
v 19.5 65 -22.5
v 21.5 65 -22.5
v 22.5 65 -22.5

# faces
f 3/1/1 2/1/1 1/1/1
f 4/1/1 2/1/1 3/1/1
f 10/4/1 6/4/1 5/4/1
f 11/2/1 7/2/1 6/2/1
f 11/4/1 6/4/1 10/4/1
f 12/2/1 7/2/1 11/2/1
f 13/5/1 9/5/1 8/5/1
f 14/5/1 9/5/1 13/5/1
f 17/2/1 16/2/1 15/2/1
f 18/2/1 16/2/1 17/2/1
f 21/2/1 20/2/1 19/2/1
f 22/2/1 20/2/1 21/2/1
f 27/2/1 24/2/1 23/2/1
f 28/2/1 24/2/1 27/2/1
f 29/2/1 26/2/1 25/2/1
f 30/2/1 26/2/1 29/2/1
f 35/3/1 32/3/1 31/3/1
f 36/3/1 32/3/1 35/3/1
f 37/2/1 34/2/1 33/2/1
f 38/2/1 34/2/1 37/2/1
f 45/2/1 40/2/1 39/2/1
f 46/2/1 40/2/1 45/2/1
f 47/2/1 42/2/1 41/2/1
f 48/2/1 42/2/1 47/2/1
f 49/2/1 44/2/1 43/2/1
f 50/2/1 44/2/1 49/2/1
f 53/2/1 52/2/1 51/2/1
f 54/2/1 52/2/1 53/2/1
f 61/2/1 56/2/1 55/2/1
f 62/2/1 56/2/1 61/2/1
f 63/2/1 58/2/1 57/2/1
f 64/2/1 58/2/1 63/2/1
f 65/2/1 60/2/1 59/2/1
f 66/2/1 60/2/1 65/2/1
f 72/2/1 68/2/1 67/2/1
f 73/2/1 68/2/1 72/2/1
f 74/2/1 70/2/1 69/2/1
f 75/5/1 71/5/1 70/5/1
f 75/2/1 70/2/1 74/2/1
f 76/5/1 71/5/1 75/5/1
f 83/2/1 78/2/1 77/2/1
f 84/2/1 78/2/1 83/2/1
f 85/2/1 80/2/1 79/2/1
f 86/2/1 80/2/1 85/2/1
f 87/2/1 82/2/1 81/2/1
f 88/2/1 82/2/1 87/2/1
f 91/2/1 90/2/1 89/2/1
f 92/2/1 90/2/1 91/2/1
f 93/1/2 94/1/2 95/1/2
f 95/1/2 94/1/2 96/1/2
f 97/1/2 98/1/2 99/1/2
f 99/1/2 98/1/2 100/1/2
f 101/1/2 102/1/2 103/1/2
f 103/1/2 102/1/2 104/1/2
f 105/1/2 106/1/2 111/1/2
f 111/1/2 106/1/2 112/1/2
f 107/2/2 108/2/2 113/2/2
f 113/2/2 108/2/2 114/2/2
f 109/5/2 110/5/2 115/5/2
f 115/5/2 110/5/2 116/5/2
f 117/1/2 118/1/2 121/1/2
f 121/1/2 118/1/2 122/1/2
f 119/2/2 120/2/2 123/2/2
f 123/2/2 120/2/2 124/2/2
f 125/1/2 126/1/2 129/1/2
f 129/1/2 126/1/2 130/1/2
f 127/2/2 128/2/2 131/2/2
f 131/2/2 128/2/2 132/2/2
f 133/2/2 134/2/2 135/2/2
f 135/2/2 134/2/2 136/2/2
f 137/2/2 138/2/2 143/2/2
f 143/2/2 138/2/2 144/2/2
f 139/2/2 140/2/2 145/2/2
f 145/2/2 140/2/2 146/2/2
f 141/2/2 142/2/2 147/2/2
f 147/2/2 142/2/2 148/2/2
f 149/2/2 150/2/2 153/2/2
f 153/2/2 150/2/2 154/2/2
f 151/2/2 152/2/2 155/2/2
f 155/2/2 152/2/2 156/2/2
f 157/2/2 158/2/2 161/2/2
f 161/2/2 158/2/2 162/2/2
f 159/2/2 160/2/2 163/2/2
f 163/2/2 160/2/2 164/2/2
f 165/2/2 166/2/2 167/2/2
f 167/2/2 166/2/2 168/2/2
f 169/2/2 170/2/2 171/2/2
f 171/2/2 170/2/2 172/2/2
f 173/1/2 174/1/2 175/1/2
f 175/1/2 174/1/2 176/1/2
f 176/1/2 174/1/2 177/1/2
f 177/1/2 174/1/2 178/1/2
f 178/1/2 174/1/2 179/1/2
f 179/1/2 174/1/2 180/1/2
f 180/1/2 174/1/2 181/1/2
f 181/1/2 174/1/2 182/1/2
f 182/1/2 174/1/2 183/1/2
f 183/1/2 174/1/2 184/1/2
f 173/1/2 175/1/2 185/1/2
f 185/1/2 175/1/2 186/1/2
f 176/3/2 177/3/2 187/3/2
f 177/5/2 178/5/2 188/5/2
f 187/3/2 177/3/2 188/3/2
f 188/5/2 178/5/2 189/5/2
f 179/5/2 180/5/2 190/5/2
f 190/5/2 180/5/2 191/5/2
f 181/2/2 182/2/2 192/2/2
f 182/5/2 183/5/2 193/5/2
f 192/2/2 182/2/2 193/2/2
f 183/3/2 184/3/2 194/3/2
f 193/5/2 183/5/2 194/5/2
f 194/3/2 184/3/2 195/3/2
f 198/1/3 197/1/3 196/1/3
f 199/1/3 197/1/3 198/1/3
f 202/2/3 201/2/3 200/2/3
f 203/2/3 201/2/3 202/2/3
f 206/2/3 205/2/3 204/2/3
f 207/2/3 205/2/3 206/2/3
f 210/2/3 209/2/3 208/2/3
f 211/2/3 209/2/3 210/2/3
f 212/3/3 211/3/3 210/3/3
f 213/3/3 211/3/3 212/3/3
f 216/3/3 215/3/3 214/3/3
f 217/3/3 215/3/3 216/3/3
f 220/2/3 219/2/3 218/2/3
f 221/2/3 219/2/3 220/2/3
f 224/2/3 223/2/3 222/2/3
f 225/2/3 223/2/3 224/2/3
f 228/2/3 227/2/3 226/2/3
f 229/2/3 227/2/3 228/2/3
f 232/2/3 231/2/3 230/2/3
f 233/2/3 231/2/3 232/2/3
f 236/2/3 235/2/3 234/2/3
f 237/2/3 235/2/3 236/2/3
f 240/2/3 239/2/3 238/2/3
f 241/2/3 239/2/3 240/2/3
f 244/5/3 243/5/3 242/5/3
f 245/5/3 243/5/3 244/5/3
f 248/2/3 247/2/3 246/2/3
f 249/2/3 247/2/3 248/2/3
f 252/2/3 251/2/3 250/2/3
f 253/2/3 251/2/3 252/2/3
f 256/4/3 255/4/3 254/4/3
f 257/4/3 255/4/3 256/4/3
f 260/2/3 259/2/3 258/2/3
f 261/2/3 259/2/3 260/2/3
f 264/2/3 263/2/3 262/2/3
f 265/2/3 263/2/3 264/2/3
f 268/2/3 267/2/3 266/2/3
f 269/2/3 267/2/3 268/2/3
f 272/2/3 271/2/3 270/2/3
f 273/2/3 271/2/3 272/2/3
f 276/2/3 275/2/3 274/2/3
f 277/2/3 275/2/3 276/2/3
f 280/2/3 279/2/3 278/2/3
f 281/2/3 279/2/3 280/2/3
f 284/2/3 283/2/3 282/2/3
f 285/2/3 283/2/3 284/2/3
f 288/5/3 287/5/3 286/5/3
f 289/5/3 287/5/3 288/5/3
f 290/1/4 291/1/4 292/1/4
f 292/1/4 291/1/4 293/1/4
f 294/1/4 295/1/4 296/1/4
f 296/1/4 295/1/4 297/1/4
f 298/1/4 299/1/4 300/1/4
f 300/1/4 299/1/4 301/1/4
f 302/2/4 303/2/4 304/2/4
f 304/2/4 303/2/4 305/2/4
f 306/2/4 307/2/4 308/2/4
f 308/2/4 307/2/4 309/2/4
f 308/5/4 309/5/4 310/5/4
f 310/5/4 309/5/4 311/5/4
f 312/1/4 313/1/4 314/1/4
f 314/1/4 313/1/4 315/1/4
f 316/2/4 317/2/4 318/2/4
f 318/2/4 317/2/4 319/2/4
f 320/2/4 321/2/4 322/2/4
f 322/2/4 321/2/4 323/2/4
f 324/1/4 325/1/4 326/1/4
f 326/1/4 325/1/4 327/1/4
f 328/2/4 329/2/4 330/2/4
f 330/2/4 329/2/4 331/2/4
f 332/1/4 333/1/4 334/1/4
f 334/1/4 333/1/4 335/1/4
f 336/2/4 337/2/4 338/2/4
f 338/2/4 337/2/4 339/2/4
f 340/2/4 341/2/4 342/2/4
f 342/2/4 341/2/4 343/2/4
f 344/2/4 345/2/4 346/2/4
f 346/2/4 345/2/4 347/2/4
f 346/5/4 347/5/4 348/5/4
f 348/5/4 347/5/4 349/5/4
f 350/2/4 351/2/4 352/2/4
f 352/2/4 351/2/4 353/2/4
f 354/2/4 355/2/4 356/2/4
f 356/2/4 355/2/4 357/2/4
f 358/2/4 359/2/4 360/2/4
f 360/2/4 359/2/4 361/2/4
f 362/2/4 363/2/4 364/2/4
f 364/2/4 363/2/4 365/2/4
f 366/2/4 367/2/4 368/2/4
f 368/2/4 367/2/4 369/2/4
f 370/1/4 371/1/4 372/1/4
f 372/1/4 371/1/4 373/1/4
f 370/1/4 372/1/4 374/1/4
f 370/1/4 374/1/4 376/1/4
f 374/5/4 375/5/4 376/5/4
f 376/5/4 375/5/4 377/5/4
f 370/1/4 376/1/4 378/1/4
f 370/1/4 378/1/4 380/1/4
f 378/2/4 379/2/4 380/2/4
f 380/2/4 379/2/4 381/2/4
f 370/1/4 380/1/4 382/1/4
f 380/5/4 381/5/4 382/5/4
f 382/5/4 381/5/4 383/5/4
f 370/1/4 382/1/4 384/1/4
f 382/3/4 383/3/4 384/3/4
f 384/3/4 383/3/4 385/3/4
f 370/1/4 384/1/4 386/1/4
f 384/2/4 385/2/4 386/2/4
f 386/2/4 385/2/4 387/2/4
f 370/1/4 386/1/4 388/1/4
f 370/1/4 388/1/4 390/1/4
f 388/5/4 389/5/4 390/5/4
f 390/5/4 389/5/4 391/5/4
f 370/1/4 390/1/4 392/1/4
f 390/3/4 391/3/4 392/3/4
f 392/3/4 391/3/4 393/3/4
f 370/1/4 392/1/4 394/1/4
f 392/5/4 393/5/4 394/5/4
f 394/5/4 393/5/4 395/5/4
f 370/1/4 394/1/4 396/1/4
f 394/3/4 395/3/4 397/3/4
f 396/1/4 394/1/4 397/1/4
f 397/3/4 395/3/4 398/3/4
f 401/1/5 400/1/5 399/1/5
f 402/1/5 400/1/5 401/1/5
f 403/1/6 404/1/6 406/1/6
f 406/1/6 404/1/6 407/1/6
f 407/1/6 404/1/6 408/1/6
f 408/1/6 404/1/6 409/1/6
f 409/1/6 404/1/6 410/1/6
f 410/1/6 404/1/6 411/1/6
f 411/1/6 404/1/6 412/1/6
f 412/1/6 404/1/6 413/1/6
f 405/1/6 406/1/6 415/1/6
f 406/1/6 407/1/6 415/1/6
f 415/1/6 407/1/6 416/1/6
f 416/1/6 407/1/6 417/1/6
f 408/1/6 409/1/6 418/1/6
f 418/1/6 409/1/6 419/1/6
f 410/1/6 411/1/6 420/1/6
f 420/1/6 411/1/6 421/1/6
f 414/1/6 415/1/6 422/1/6
f 415/1/6 416/1/6 422/1/6
f 422/1/6 416/1/6 423/1/6
f 419/1/6 420/1/6 424/1/6
f 414/1/6 422/1/6 428/1/6
f 428/1/6 422/1/6 429/1/6
f 419/1/6 424/1/6 432/1/6
f 425/1/6 426/1/6 432/1/6
f 424/1/6 425/1/6 432/1/6
f 432/1/6 426/1/6 433/1/6
f 433/1/6 426/1/6 434/1/6
f 429/1/6 430/1/6 436/1/6
f 428/1/6 429/1/6 436/1/6
f 427/1/6 428/1/6 436/1/6
f 436/1/6 430/1/6 437/1/6
f 437/1/6 430/1/6 438/1/6
f 432/1/6 433/1/6 439/1/6
f 431/1/6 432/1/6 439/1/6
f 439/1/6 433/1/6 440/1/6
f 440/1/6 433/1/6 441/1/6
f 434/1/6 426/1/6 442/1/6
f 442/1/6 426/1/6 443/1/6
f 436/1/6 437/1/6 444/1/6
f 435/1/6 436/1/6 444/1/6
f 444/1/6 437/1/6 445/1/6
f 439/1/6 440/1/6 446/1/6
f 438/1/6 439/1/6 446/1/6
f 446/1/6 440/1/6 447/1/6
f 435/1/6 444/1/6 449/1/6
f 449/1/6 444/1/6 450/1/6
f 448/1/6 449/1/6 450/1/6
f 450/1/6 444/1/6 451/1/6
f 438/1/6 446/1/6 453/1/6
f 452/1/6 453/1/6 454/1/6
f 453/1/6 446/1/6 454/1/6
f 448/1/6 450/1/6 459/1/6
f 454/1/6 455/1/6 460/1/6
f 452/1/6 454/1/6 460/1/6
f 460/1/6 455/1/6 461/1/6
f 457/1/6 458/1/6 463/1/6
f 456/1/6 457/1/6 463/1/6
f 463/1/6 458/1/6 464/1/6
f 464/1/6 458/1/6 465/1/6
f 452/1/6 460/1/6 467/1/6
f 461/1/6 455/1/6 468/1/6
f 468/1/6 455/1/6 469/1/6
f 463/1/6 464/1/6 470/1/6
f 462/1/6 463/1/6 470/1/6
f 470/1/6 464/1/6 471/1/6
f 471/1/6 464/1/6 472/1/6
f 466/1/6 467/1/6 474/1/6
f 467/1/6 460/1/6 475/1/6
f 474/1/6 467/1/6 475/1/6
f 475/1/6 460/1/6 476/1/6
f 448/1/6 459/1/6 477/1/6
f 473/1/6 474/1/6 478/1/6
f 474/1/6 475/1/6 478/1/6
f 478/1/6 475/1/6 479/1/6
f 479/1/6 475/1/6 480/1/6
f 470/1/6 471/1/6 481/1/6
f 469/1/6 470/1/6 481/1/6
f 481/1/6 471/1/6 482/1/6
f 478/1/6 479/1/6 483/1/6
f 448/1/6 477/1/6 483/1/6
f 477/1/6 478/1/6 483/1/6
f 483/1/6 479/1/6 484/1/6
f 469/1/6 481/1/6 485/1/6
f 448/1/6 483/1/6 486/1/6
f 486/1/6 483/1/6 487/1/6
f 484/1/6 479/1/6 488/1/6
f 488/1/6 479/1/6 489/1/6
f 469/1/6 485/1/6 490/1/6
f 490/1/6 485/1/6 491/1/6
f 492/1/6 493/1/6 494/1/6
f 494/1/6 493/1/6 495/1/6
f 492/1/6 494/1/6 496/1/6
f 496/1/6 494/1/6 497/1/6
f 492/1/6 496/1/6 505/1/6
f 505/1/6 496/1/6 506/1/6
f 498/2/6 499/2/6 508/2/6
f 508/2/6 499/2/6 509/2/6
f 500/2/6 501/2/6 510/2/6
f 510/2/6 501/2/6 511/2/6
f 502/2/6 503/2/6 512/2/6
f 503/3/6 504/3/6 513/3/6
f 512/2/6 503/2/6 513/2/6
f 513/3/6 504/3/6 514/3/6
f 507/3/6 508/3/6 516/3/6
f 508/5/6 509/5/6 517/5/6
f 516/3/6 508/3/6 517/3/6
f 517/5/6 509/5/6 518/5/6
f 511/2/6 512/2/6 519/2/6
f 512/2/6 513/2/6 519/2/6
f 513/5/6 514/5/6 520/5/6
f 519/2/6 513/2/6 520/2/6
f 520/5/6 514/5/6 521/5/6
f 492/1/6 505/1/6 522/1/6
f 522/1/6 505/1/6 523/1/6
f 515/2/6 516/2/6 524/2/6
f 517/2/6 518/2/6 524/2/6
f 516/2/6 517/2/6 524/2/6
f 524/2/6 518/2/6 525/2/6
f 518/5/6 509/5/6 526/5/6
f 525/2/6 518/2/6 526/2/6
f 509/2/6 510/2/6 527/2/6
f 526/5/6 509/5/6 527/5/6
f 527/2/6 510/2/6 528/2/6
f 492/1/6 522/1/6 531/1/6
f 531/1/6 522/1/6 532/1/6
f 526/2/6 527/2/6 534/2/6
f 525/2/6 526/2/6 534/2/6
f 534/2/6 527/2/6 535/2/6
f 529/2/6 530/2/6 537/2/6
f 537/2/6 530/2/6 538/2/6
f 538/2/6 530/2/6 539/2/6
f 533/2/6 534/2/6 542/2/6
f 542/2/6 534/2/6 543/2/6
f 537/2/6 538/2/6 545/2/6
f 536/2/6 537/2/6 545/2/6
f 545/2/6 538/2/6 546/2/6
f 539/5/6 540/5/6 547/5/6
f 546/2/6 538/2/6 547/2/6
f 538/5/6 539/5/6 547/5/6
f 547/5/6 540/5/6 548/5/6
f 548/5/6 540/5/6 549/5/6
f 492/1/6 531/1/6 550/1/6
f 550/1/6 531/1/6 551/1/6
f 542/5/6 543/5/6 552/5/6
f 541/2/6 542/2/6 552/2/6
f 552/5/6 543/5/6 553/5/6
f 543/2/6 534/2/6 554/2/6
f 553/5/6 543/5/6 554/5/6
f 545/2/6 546/2/6 555/2/6
f 544/2/6 545/2/6 555/2/6
f 546/5/6 547/5/6 556/5/6
f 555/2/6 546/2/6 556/2/6
f 547/5/6 548/5/6 556/5/6
f 548/3/6 549/3/6 557/3/6
f 556/5/6 548/5/6 557/5/6
f 549/5/6 540/5/6 558/5/6
f 557/3/6 549/3/6 558/3/6
f 541/2/6 552/2/6 560/2/6
f 552/3/6 553/3/6 561/3/6
f 560/2/6 552/2/6 561/2/6
f 553/2/6 554/2/6 562/2/6
f 561/3/6 553/3/6 562/3/6
f 554/2/6 534/2/6 563/2/6
f 562/2/6 554/2/6 563/2/6
f 563/2/6 534/2/6 564/2/6
f 544/2/6 555/2/6 565/2/6
f 555/5/6 556/5/6 565/5/6
f 556/3/6 557/3/6 566/3/6
f 565/5/6 556/5/6 566/5/6
f 557/5/6 558/5/6 567/5/6
f 566/3/6 557/3/6 567/3/6
f 561/5/6 562/5/6 568/5/6
f 560/5/6 561/5/6 568/5/6
f 559/4/6 560/4/6 568/4/6
f 568/5/6 562/5/6 569/5/6
f 566/2/6 567/2/6 570/2/6
f 544/2/6 565/2/6 570/2/6
f 565/2/6 566/2/6 570/2/6
f 570/2/6 567/2/6 571/2/6
f 571/2/6 567/2/6 572/2/6
f 567/5/6 558/5/6 573/5/6
f 572/2/6 567/2/6 573/2/6
f 558/5/6 540/5/6 574/5/6
f 573/5/6 558/5/6 574/5/6
f 559/4/6 568/4/6 575/4/6
f 568/2/6 569/2/6 576/2/6
f 575/4/6 568/4/6 576/4/6
f 569/5/6 562/5/6 577/5/6
f 576/2/6 569/2/6 577/2/6
f 562/2/6 563/2/6 578/2/6
f 577/5/6 562/5/6 578/5/6
f 571/2/6 572/2/6 581/2/6
f 581/2/6 572/2/6 582/2/6
f 577/2/6 578/2/6 585/2/6
f 578/2/6 563/2/6 585/2/6
f 585/2/6 563/2/6 586/2/6
f 579/2/6 580/2/6 587/2/6
f 571/2/6 581/2/6 588/2/6
f 588/2/6 581/2/6 589/2/6
f 583/2/6 584/2/6 591/2/6
f 591/2/6 584/2/6 592/2/6
f 592/2/6 584/2/6 593/2/6
f 575/2/6 576/2/6 594/2/6
f 576/5/6 577/5/6 594/5/6
f 577/2/6 585/2/6 595/2/6
f 594/5/6 577/5/6 595/5/6
f 595/2/6 585/2/6 596/2/6
f 579/2/6 587/2/6 598/2/6
f 587/2/6 588/2/6 598/2/6
f 598/2/6 588/2/6 599/2/6
f 599/2/6 588/2/6 600/2/6
f 591/2/6 592/2/6 601/2/6
f 590/2/6 591/2/6 601/2/6
f 592/5/6 593/5/6 602/5/6
f 601/2/6 592/2/6 602/2/6
f 575/2/6 594/2/6 603/2/6
f 594/2/6 595/2/6 603/2/6
f 603/2/6 595/2/6 604/2/6
f 598/2/6 599/2/6 606/2/6
f 597/2/6 598/2/6 606/2/6
f 590/2/6 601/2/6 608/2/6
f 608/2/6 601/2/6 609/2/6
f 601/5/6 602/5/6 610/5/6
f 609/2/6 601/2/6 610/2/6
f 602/5/6 593/5/6 611/5/6
f 610/5/6 602/5/6 611/5/6
f 611/5/6 593/5/6 612/5/6
f 605/2/6 606/2/6 615/2/6
f 606/2/6 599/2/6 615/2/6
f 599/5/6 600/5/6 616/5/6
f 615/2/6 599/2/6 616/2/6
f 600/2/6 588/2/6 617/2/6
f 616/5/6 600/5/6 617/5/6
f 608/2/6 609/2/6 618/2/6
f 607/2/6 608/2/6 618/2/6
f 618/2/6 609/2/6 619/2/6
f 609/5/6 610/5/6 620/5/6
f 619/2/6 609/2/6 620/2/6
f 610/5/6 611/5/6 620/5/6
f 492/1/6 550/1/6 621/1/6
f 621/1/6 550/1/6 622/1/6
f 613/5/6 614/5/6 623/5/6
f 623/5/6 614/5/6 624/5/6
f 605/2/6 615/2/6 625/2/6
f 615/5/6 616/5/6 626/5/6
f 625/2/6 615/2/6 626/2/6
f 616/3/6 617/3/6 627/3/6
f 626/5/6 616/5/6 627/5/6
f 617/2/6 588/2/6 628/2/6
f 627/3/6 617/3/6 628/3/6
f 628/2/6 588/2/6 629/2/6
f 618/5/6 619/5/6 630/5/6
f 619/3/6 620/3/6 631/3/6
f 630/5/6 619/5/6 631/5/6
f 620/5/6 611/5/6 632/5/6
f 631/3/6 620/3/6 632/3/6
f 611/3/6 612/3/6 633/3/6
f 632/5/6 611/5/6 633/5/6
f 633/3/6 612/3/6 634/3/6
